<svg width="296" height="42" viewBox="0 0 296 42" fill="none" xmlns="http://www.w3.org/2000/svg">
<path fill-rule="evenodd" clip-rule="evenodd" d="M15.037 24.155H19.636V19.556H15.037V24.155Z" fill="white"/>
<path fill-rule="evenodd" clip-rule="evenodd" d="M21.303 18.1851H25.901V13.5861H21.303V18.1851Z" fill="white"/>
<path fill-rule="evenodd" clip-rule="evenodd" d="M15.037 18.1851H19.636V13.5861H15.037V18.1851Z" fill="white"/>
<path fill-rule="evenodd" clip-rule="evenodd" d="M21.302 24.155H25.9V19.556H21.302V24.155Z" fill="white"/>
<path fill-rule="evenodd" clip-rule="evenodd" d="M20.469 3.435L35.5 14.98H39.971L20.469 0L0.966986 14.98H5.43799L20.469 3.435Z" fill="white"/>
<path fill-rule="evenodd" clip-rule="evenodd" d="M8.84999 35.768C11.458 37.412 12.762 38.999 12.875 39.906C12.989 40.813 13.045 41.267 13.045 41.267H18.771C18.771 41.267 18.318 39.339 18.431 37.128C18.545 34.917 18.148 32.309 14.576 29.928C11.005 27.547 8.33999 26.3 6.97899 24.996C5.61899 23.692 5.90199 25.846 6.41199 27.037C6.92299 28.227 9.92699 30.339 10.381 30.906C10.834 31.473 12.082 32.89 9.64399 31.53C7.20599 30.169 5.33099 27.8 4.58999 27.059C4.32099 26.791 3.40799 22.728 2.44399 20.234C1.47999 17.739 0.402986 17.569 0.0629862 17.853C-0.277014 18.136 0.856986 23.465 1.13999 25.62C1.42399 27.774 2.04699 29.361 3.29499 30.949C4.54199 32.536 6.24199 34.123 8.84999 35.768Z" fill="white"/>
<path fill-rule="evenodd" clip-rule="evenodd" d="M38.494 20.234C37.53 22.728 36.617 26.791 36.348 27.059C35.607 27.8 33.732 30.169 31.294 31.53C28.856 32.89 30.104 31.473 30.557 30.906C31.011 30.339 34.015 28.227 34.525 27.037C35.036 25.846 35.319 23.692 33.959 24.996C32.598 26.3 29.934 27.547 26.362 29.928C22.79 32.309 22.393 34.917 22.507 37.128C22.62 39.339 22.167 41.267 22.167 41.267H27.892C27.892 41.267 27.949 40.813 28.063 39.906C28.176 38.999 29.48 37.412 32.088 35.768C34.696 34.123 36.396 32.536 37.644 30.949C38.891 29.361 39.514 27.774 39.798 25.62C40.081 23.465 41.215 18.136 40.875 17.853C40.535 17.569 39.458 17.739 38.494 20.234Z" fill="white"/>
<path fill-rule="evenodd" clip-rule="evenodd" d="M70.9576 26.8282C70.4776 26.7322 70.1586 26.5868 70.0019 26.3962C69.8438 26.2042 69.7661 25.8824 69.7661 25.4292V16.1214C69.7661 15.6838 69.8409 15.3661 69.9906 15.1685C70.1416 14.968 70.4565 14.8155 70.9365 14.7054C71.2795 14.6362 71.4504 14.4993 71.4504 14.2932C71.4504 14.1972 71.4052 14.1266 71.3162 14.0772C71.2273 14.0306 71.1144 14.0066 70.9774 14.0066C70.5948 14.0066 70.1289 14.0207 69.5812 14.0475C69.0871 14.0758 68.7313 14.0871 68.5125 14.0871C68.2386 14.0871 67.8009 14.0758 67.1967 14.0475C66.5402 14.0207 66.0334 14.0066 65.6762 14.0066C65.3755 14.0066 65.2245 14.1082 65.2245 14.3144C65.2245 14.4245 65.2654 14.5049 65.3487 14.56C65.4306 14.6151 65.5675 14.6645 65.7595 14.7054C66.2805 14.8282 66.632 14.9962 66.8169 15.208C67.0019 15.4212 67.0951 15.7247 67.0951 16.1214V19.9233C67.0951 20.1167 67.0202 20.2099 66.8692 20.2099H60.7252C60.5205 20.2099 60.4174 20.128 60.4174 19.9628V16.1426C60.4174 15.7177 60.5106 15.4071 60.6941 15.208C60.8805 15.0089 61.2391 14.8424 61.7741 14.7054C61.9647 14.6645 62.0988 14.6151 62.1736 14.56C62.2485 14.5049 62.288 14.4245 62.288 14.3144C62.288 14.1082 62.144 14.0066 61.856 14.0066C61.4847 14.0066 60.9864 14.0207 60.3553 14.0475C59.7807 14.0758 59.3699 14.0871 59.1228 14.0871C58.8899 14.0871 58.5002 14.0758 57.9511 14.0475C57.3765 14.0207 56.9035 14.0066 56.5336 14.0066C56.3967 14.0066 56.2838 14.0306 56.1962 14.0772C56.1059 14.1266 56.0621 14.1972 56.0621 14.2932C56.0621 14.5134 56.2329 14.6504 56.576 14.7054C57.0673 14.8155 57.3864 14.9624 57.5304 15.1459C57.6744 15.3308 57.7464 15.6569 57.7464 16.1214V25.4292C57.7464 25.8824 57.6616 26.2 57.4894 26.3849C57.3186 26.5713 56.9925 26.7181 56.5139 26.8282C56.3346 26.8678 56.2061 26.9186 56.1228 26.9807C56.0409 27.0414 56 27.1275 56 27.2377C56 27.3209 56.048 27.3887 56.144 27.4424C56.24 27.4974 56.3501 27.5242 56.4729 27.5242C56.9388 27.5242 57.3976 27.5045 57.8494 27.4635C58.424 27.4367 58.8489 27.4226 59.1228 27.4226C59.3826 27.4226 59.8287 27.4367 60.4584 27.4635C61.088 27.4904 61.5807 27.5045 61.9379 27.5045C62.2386 27.5045 62.3896 27.4085 62.3896 27.2165C62.3896 27.1064 62.3515 27.0259 62.2767 26.9708C62.2019 26.9158 62.0678 26.8678 61.8758 26.8282C61.3689 26.7181 60.9991 26.5459 60.7675 26.3144C60.5332 26.08 60.4174 25.7581 60.4174 25.3487V21.5059C60.4174 21.3958 60.4344 21.3167 60.4682 21.2701C60.5035 21.2207 60.5614 21.1967 60.6433 21.1967H66.8889C67.0259 21.1967 67.0951 21.3068 67.0951 21.5271V25.4292C67.0951 25.8414 66.992 26.1492 66.7859 26.3553C66.5812 26.56 66.2254 26.7181 65.7186 26.8282C65.5407 26.8678 65.4122 26.9158 65.3388 26.9708C65.2626 27.0259 65.2245 27.1064 65.2245 27.2165C65.2245 27.4085 65.3685 27.5045 65.6565 27.5045C66.0122 27.5045 66.5064 27.4904 67.136 27.4635C67.7388 27.4367 68.1624 27.4226 68.4094 27.4226C68.6692 27.4226 69.0744 27.4367 69.6221 27.4635C70.0739 27.5045 70.5327 27.5242 70.9986 27.5242C71.1214 27.5242 71.2315 27.4974 71.3275 27.4424C71.4235 27.3887 71.4701 27.3209 71.4701 27.2377C71.4701 27.1275 71.4306 27.0414 71.3473 26.9807C71.2654 26.9186 71.1355 26.8678 70.9576 26.8282Z" fill="white"/>
<path fill-rule="evenodd" clip-rule="evenodd" d="M84.1675 24.3209C84.0165 24.3209 83.8936 24.4085 83.7976 24.5878C83.3868 25.3685 82.9972 25.9021 82.6273 26.1901C82.2574 26.4654 81.7012 26.6009 80.9628 26.6009H79.2772C78.8664 26.6009 78.5699 26.512 78.3835 26.3341C78.2 26.1548 78.1068 25.847 78.1068 25.4094V21.5059C78.1068 21.3266 78.152 21.2009 78.2395 21.1247C78.3285 21.0499 78.4767 21.0132 78.6828 21.0132H80.5929C80.8527 21.0132 81.0574 21.1049 81.2099 21.2899C81.3595 21.4734 81.4894 21.7656 81.5995 22.1623C81.6405 22.3416 81.7054 22.48 81.7944 22.5845C81.8833 22.6861 81.9765 22.7369 82.0711 22.7369C82.2094 22.7369 82.2772 22.6155 82.2772 22.3685V22.2668C82.2362 21.8546 82.2151 21.2998 82.2151 20.6009C82.2151 20.0941 82.2433 19.5675 82.2984 19.0198C82.2984 18.8955 82.2701 18.7981 82.2151 18.7219C82.1614 18.647 82.0993 18.6075 82.0315 18.6075C81.8522 18.6075 81.7238 18.7445 81.6405 19.0198C81.5035 19.4292 81.3567 19.7256 81.1986 19.9021C81.0419 20.0814 80.7906 20.1689 80.4489 20.1689H78.5798C78.2635 20.1689 78.1068 20.0122 78.1068 19.696V15.671C78.1068 15.4254 78.2056 15.2249 78.4047 15.0739C78.6024 14.9228 78.8325 14.848 79.0936 14.848H81.0038C81.5925 14.848 82.0781 15.0541 82.4621 15.4649C82.5722 15.575 82.6781 15.7572 82.7812 16.0099C82.8842 16.2626 82.9901 16.5336 83.0988 16.8202C83.1807 17.0122 83.2908 17.1082 83.4278 17.1082C83.5111 17.1082 83.5788 17.0758 83.6339 17.0066C83.6875 16.9374 83.7158 16.8499 83.7158 16.7398C83.7158 16.4094 83.6536 15.8899 83.5308 15.1783L83.3868 14.2522C83.36 14.0475 83.2019 13.9445 82.9139 13.9445C82.8588 13.9445 82.6781 13.96 82.3704 13.9854C82.0612 14.0122 81.6941 14.0348 81.2706 14.0475C79.7642 14.0758 78.4626 14.087 77.3671 14.087C77.024 14.087 76.496 14.0758 75.7859 14.0475C75.0729 14.0207 74.5111 14.0066 74.1002 14.0066C73.9492 14.0066 73.8292 14.0306 73.7416 14.0772C73.6513 14.1266 73.6075 14.1972 73.6075 14.2932C73.6075 14.4993 73.7854 14.6362 74.1412 14.7054C74.648 14.8155 74.9939 14.968 75.1788 15.1685C75.3638 15.3661 75.4555 15.6922 75.4555 16.1426V25.4503C75.4555 25.888 75.3525 26.2 75.1478 26.3849C74.9431 26.5713 74.5859 26.7322 74.0791 26.8678C73.7233 26.9496 73.5454 27.0809 73.5454 27.2574C73.5454 27.3407 73.5934 27.4085 73.6894 27.4635C73.7854 27.5186 73.9012 27.5454 74.0381 27.5454C74.5181 27.5454 74.984 27.5242 75.4358 27.4833C76.0386 27.4579 76.4706 27.4423 76.7304 27.4423C77.7299 27.4423 79.1064 27.4579 80.8598 27.4833L83.3247 27.5242C83.5167 27.5242 83.6536 27.4282 83.7355 27.2376C84.1605 25.9628 84.3736 25.1073 84.3736 24.6696C84.3736 24.4508 84.3045 24.3336 84.1675 24.3209Z" fill="white"/>
<path fill-rule="evenodd" clip-rule="evenodd" d="M103.42 26.8282C102.938 26.7181 102.573 26.5529 102.319 26.3341C102.066 26.1139 101.933 25.8202 101.919 25.4503L101.795 23.7435C101.713 22.5802 101.642 21.4028 101.58 20.2099C101.518 19.0198 101.467 17.6969 101.426 16.2456C101.412 15.904 101.47 15.6372 101.601 15.4452C101.73 15.2532 101.954 15.088 102.268 14.9525C102.447 14.8678 102.705 14.7661 103.048 14.6419C103.228 14.5755 103.353 14.5134 103.43 14.4583C103.504 14.4033 103.541 14.3228 103.541 14.2127C103.541 14.0348 103.384 13.9445 103.068 13.9445C102.892 13.9445 102.433 13.9713 101.693 14.0263C101.199 14.0814 100.665 14.1223 100.091 14.1506H99.2466C99.1111 14.1506 99.0207 14.2381 98.9798 14.4174C98.8696 14.8014 98.7341 15.3901 98.5704 16.1849L95.2626 23.5402C95.2485 23.608 95.2075 23.6419 95.1384 23.6419C95.0692 23.6419 95.0085 23.5953 94.9534 23.4979L91.8715 15.9788L91.5849 15.1346C91.5694 15.0541 91.4946 14.8212 91.3576 14.4386C91.3308 14.3426 91.2729 14.2593 91.1854 14.1915C91.0951 14.1223 91.0019 14.087 90.9073 14.087C90.4682 14.087 89.7567 14.0616 88.7713 14.0066C88.1544 13.9656 87.6546 13.9445 87.2706 13.9445C86.8739 13.9445 86.6748 14.0405 86.6748 14.2325C86.6748 14.4499 86.8386 14.5953 87.1675 14.6645C87.7294 14.8014 88.16 14.9722 88.4621 15.1783C88.6132 15.2743 88.7191 15.3901 88.7812 15.527C88.8419 15.6626 88.88 15.8348 88.8927 16.0409V16.7398C88.7021 19.9162 88.4268 22.7595 88.0711 25.264C88.016 25.6903 87.8762 26.039 87.6504 26.3143C87.4245 26.5868 87.1407 26.7788 86.7976 26.8889C86.5788 26.944 86.4249 26.9948 86.3346 27.0414C86.2471 27.0908 86.2019 27.1614 86.2019 27.2574C86.2019 27.4367 86.3727 27.5242 86.7158 27.5242C86.8386 27.5242 87.1054 27.5129 87.5176 27.4833C88.2984 27.4423 88.7289 27.4226 88.8108 27.4226C89.0438 27.4226 89.3247 27.4367 89.6536 27.4635C90.0376 27.4903 90.4344 27.5045 90.8452 27.5045C90.9962 27.5045 91.1219 27.479 91.2249 27.4325C91.328 27.3845 91.3788 27.3209 91.3788 27.2376C91.3788 27.1275 91.328 27.0414 91.2249 26.9807C91.1219 26.9186 90.9751 26.8678 90.7831 26.8282C90.3045 26.7322 89.9416 26.5529 89.6946 26.2918C89.4489 26.0334 89.3247 25.7101 89.3247 25.3275C89.3247 22.4503 89.4278 20.0475 89.6325 18.1148C89.6607 17.9638 89.7158 17.8889 89.7976 17.8889C89.8513 17.8889 89.8993 17.9299 89.9416 18.0132C90.0645 18.2998 90.6066 19.5534 91.5638 21.7727C92.7158 24.431 93.5162 26.3256 93.9694 27.4635C93.9807 27.5186 94.016 27.5638 94.0711 27.5976C94.1261 27.6301 94.1812 27.6485 94.2362 27.6485C94.3435 27.6485 94.4268 27.5878 94.4819 27.4635L98.672 18.0132C98.7426 17.903 98.7962 17.848 98.8372 17.848C98.8922 17.848 98.9191 17.8974 98.9191 17.992C99.0292 20.7181 99.1111 23.2042 99.1661 25.4503C99.1802 25.9021 99.1012 26.224 98.9289 26.416C98.7581 26.608 98.432 26.7435 97.9534 26.8282C97.5849 26.8946 97.3986 27.04 97.3986 27.2574C97.3986 27.3407 97.448 27.4056 97.544 27.4536C97.6386 27.5016 97.7614 27.5242 97.9125 27.5242C98.4193 27.5242 98.8993 27.5045 99.3511 27.4635C99.9256 27.4367 100.338 27.4226 100.585 27.4226C100.843 27.4226 101.302 27.4367 101.96 27.4635C102.618 27.4903 103.123 27.5045 103.48 27.5045C103.617 27.5045 103.733 27.479 103.829 27.4325C103.925 27.3845 103.973 27.3209 103.973 27.2376C103.973 27.1275 103.929 27.0414 103.839 26.9807C103.752 26.9186 103.61 26.8678 103.42 26.8282Z" fill="white"/>
<path fill-rule="evenodd" clip-rule="evenodd" d="M115.839 13.9445C115.749 13.8894 115.65 13.8612 115.541 13.8612C115.417 13.8612 115.123 13.8894 114.657 13.9445C113.959 14.0405 113.432 14.0871 113.075 14.0871H109.808C109.466 14.0871 108.952 14.0758 108.268 14.0476C107.555 14.0207 107 14.0066 106.603 14.0066C106.274 14.0066 106.109 14.1026 106.109 14.2932C106.109 14.4993 106.288 14.6363 106.646 14.7054C107.124 14.8014 107.452 14.9723 107.63 15.2193C107.809 15.465 107.896 15.8546 107.896 16.3883V25.4292C107.896 25.8824 107.8 26.2 107.61 26.385C107.418 26.5713 107.055 26.7181 106.521 26.8283C106.178 26.9087 106.008 27.0513 106.008 27.2574C106.008 27.3407 106.057 27.4057 106.152 27.4537C106.248 27.5017 106.356 27.5243 106.48 27.5243C106.713 27.5243 106.98 27.5186 107.281 27.5045C107.583 27.4904 107.815 27.4777 107.98 27.4636C108.433 27.4226 108.883 27.4029 109.335 27.4029C109.568 27.4029 109.986 27.417 110.589 27.4424C111.083 27.4833 111.595 27.5045 112.13 27.5045C112.431 27.5045 112.582 27.417 112.582 27.2377C112.582 27.1276 112.541 27.0414 112.458 26.9807C112.376 26.9186 112.246 26.8678 112.068 26.8283C111.506 26.7181 111.12 26.56 110.906 26.3553C110.695 26.1492 110.583 25.833 110.569 25.4094C110.541 23.6829 110.528 22.3826 110.528 21.5059C110.528 21.2052 110.685 21.04 111.001 21.0132C111.273 20.9991 111.691 20.992 112.255 20.992L113.24 21.0132C113.473 21.0132 113.671 21.0838 113.836 21.2264C114.001 21.3718 114.138 21.6231 114.247 21.9774C114.288 22.1017 114.354 22.2132 114.441 22.3177C114.53 22.4193 114.631 22.4701 114.738 22.4701C114.864 22.4701 114.924 22.3473 114.924 22.1017V22C114.883 21.3817 114.864 20.9087 114.864 20.5812C114.864 20.1577 114.889 19.696 114.944 19.2033C114.958 19.0946 114.934 19.0014 114.873 18.9266C114.811 18.8532 114.746 18.8137 114.677 18.8137C114.611 18.8137 114.535 18.849 114.451 18.9153C114.369 18.9859 114.314 19.0664 114.288 19.1624C114.149 19.4786 113.987 19.7214 113.795 19.8923C113.603 20.0631 113.357 20.1492 113.055 20.1492C112.657 20.1492 112.349 20.1577 112.13 20.169L110.937 20.1901C110.679 20.1901 110.548 20.0334 110.548 19.7186V17.7252V15.8956C110.548 15.5963 110.63 15.3549 110.795 15.1784C110.96 14.9991 111.199 14.9116 111.515 14.9116H113.383C114.001 14.9116 114.485 15.0951 114.842 15.465C115.075 15.712 115.294 16.1709 115.499 16.8414C115.513 16.9374 115.558 17.0123 115.633 17.0673C115.709 17.1224 115.788 17.1492 115.87 17.1492C115.939 17.1492 115.992 17.1125 116.035 17.0363C116.075 16.9614 116.096 16.8612 116.096 16.7398C116.096 15.904 116.061 15.0541 115.992 14.1916C115.98 14.0814 115.927 13.9996 115.839 13.9445Z" fill="white"/>
<path fill-rule="evenodd" clip-rule="evenodd" d="M118.273 20.9708C118.273 22.2865 118.595 23.4569 119.239 24.4832C119.882 25.511 120.741 26.3101 121.816 26.879C122.892 27.4465 124.053 27.7303 125.299 27.7303C126.806 27.7303 128.104 27.3985 129.193 26.7336C130.28 26.0687 131.106 25.1905 131.669 24.095C132.23 22.9981 132.511 21.8207 132.511 20.5599C132.511 19.2456 132.189 18.0738 131.544 17.0475C130.9 16.0197 130.043 15.2207 128.966 14.6545C127.891 14.0856 126.731 13.8004 125.483 13.8004C123.976 13.8004 122.679 14.1322 121.591 14.7971C120.502 15.4607 119.676 16.3416 119.114 17.4385C118.554 18.5327 118.273 19.7101 118.273 20.9708ZM121.705 23.3242C121.375 22.2767 121.211 21.143 121.211 19.9232C121.211 18.335 121.545 17.0715 122.217 16.1312C122.888 15.1938 123.855 14.7251 125.114 14.7251C126.072 14.7251 126.888 15.0442 127.56 15.6809C128.23 16.3176 128.734 17.159 129.07 18.2079C129.405 19.2555 129.574 20.3891 129.574 21.6075C129.574 23.2098 129.237 24.4818 128.566 25.4192C127.894 26.3567 126.921 26.8282 125.648 26.8282C124.675 26.8282 123.856 26.5049 123.193 25.8611C122.528 25.2174 122.032 24.3717 121.705 23.3242Z" fill="white"/>
<path fill-rule="evenodd" clip-rule="evenodd" d="M149.008 27.6188C149.419 27.4466 149.624 27.1699 149.624 26.7845C149.624 26.5812 149.522 26.4767 149.316 26.4767C148.701 26.4767 148.192 26.4301 147.796 26.3341C147.398 26.2381 147.009 26.0122 146.625 25.655C145.927 25.0254 145.297 24.3365 144.735 23.591C144.173 22.8456 143.522 21.9096 142.783 20.7873C142.742 20.7463 142.719 20.6969 142.711 20.6419C142.705 20.5868 142.729 20.5543 142.783 20.5402C143.522 20.2522 144.139 19.8456 144.632 19.3176C145.126 18.7896 145.372 18.1092 145.372 17.2734C145.372 16.1623 144.954 15.3308 144.12 14.776C143.284 14.2226 142.071 13.9445 140.481 13.9445C139.838 13.9445 139.291 13.9798 138.838 14.0475C138.742 14.0475 138.591 14.0574 138.386 14.0772C138.18 14.0983 137.983 14.1082 137.791 14.1082C137.504 14.1082 137.138 14.0955 136.701 14.0673C136.331 14.0263 135.859 14.0066 135.285 14.0066C134.956 14.0066 134.791 14.1026 134.791 14.2932C134.791 14.3892 134.836 14.4753 134.923 14.5501C135.014 14.6263 135.148 14.6772 135.324 14.7054C135.696 14.7732 135.965 14.8579 136.136 14.9623C136.307 15.064 136.423 15.2193 136.486 15.4254C136.548 15.6287 136.578 15.9379 136.578 16.3473V25.4292C136.578 25.8682 136.472 26.183 136.26 26.375C136.046 26.567 135.673 26.7181 135.139 26.8282C134.796 26.9087 134.625 27.0513 134.625 27.2574C134.625 27.3407 134.675 27.4056 134.771 27.4536C134.867 27.5016 134.976 27.5242 135.098 27.5242C135.331 27.5242 135.602 27.5186 135.91 27.5045C136.219 27.4903 136.456 27.4776 136.619 27.4635C137.072 27.4226 137.529 27.4028 137.997 27.4028C138.23 27.4028 138.646 27.4169 139.25 27.4423C139.77 27.4833 140.289 27.5045 140.812 27.5045C141.098 27.5045 141.241 27.4169 141.241 27.2376C141.241 27.1275 141.2 27.0414 141.12 26.9807C141.038 26.9186 140.906 26.8678 140.727 26.8282C140.179 26.7322 139.794 26.567 139.568 26.3341C139.342 26.0998 139.228 25.7652 139.228 25.3275V21.5059C139.228 21.2306 139.303 21.095 139.454 21.095H139.475C139.872 21.1205 140.208 21.2108 140.481 21.3619C140.743 21.4974 140.968 21.7303 141.159 22.0607C141.639 22.9628 142.077 23.7068 142.475 24.2899C142.872 24.8715 143.344 25.5252 143.892 26.2508C144.317 26.7845 144.8 27.1896 145.342 27.4635C145.881 27.736 146.583 27.8758 147.447 27.8758C148.077 27.8758 148.596 27.7896 149.008 27.6188ZM142.105 15.496C142.489 15.9958 142.68 16.7256 142.68 17.6828C142.68 18.5059 142.454 19.1807 142.002 19.7073C141.552 20.2339 140.919 20.4993 140.112 20.4993C139.811 20.4993 139.588 20.4442 139.444 20.3341C139.301 20.224 139.228 20.0263 139.228 19.7398C139.228 18.1092 139.236 17.0814 139.25 16.655C139.262 15.904 139.334 15.3958 139.464 15.1346C139.595 14.8762 139.838 14.7463 140.193 14.7463C141.084 14.7463 141.722 14.9962 142.105 15.496Z" fill="white"/>
<path fill-rule="evenodd" clip-rule="evenodd" d="M162.127 25.1821C161.901 25.6353 161.644 25.9769 161.357 26.2099C161.069 26.4428 160.719 26.663 160.31 26.8678C159.405 27.3068 158.22 27.5242 156.755 27.5242C156.535 27.5242 156.166 27.5129 155.644 27.4833C155.042 27.4579 154.569 27.4423 154.228 27.4423C153.897 27.4423 153.433 27.4579 152.83 27.4833C152.364 27.5242 151.886 27.5454 151.393 27.5454C151.255 27.5454 151.137 27.5186 151.043 27.4635C150.947 27.4085 150.899 27.3407 150.899 27.2574C150.899 27.0809 151.077 26.9496 151.434 26.8678C151.953 26.7322 152.316 26.567 152.522 26.375C152.727 26.183 152.83 25.8753 152.83 25.4503V16.1426C152.83 15.6781 152.738 15.3407 152.552 15.1346C152.367 14.9313 152.028 14.7873 151.536 14.7054C151.358 14.6772 151.224 14.6263 151.136 14.5501C151.046 14.4753 151.002 14.3892 151.002 14.2932C151.002 14.1972 151.046 14.1266 151.136 14.0772C151.224 14.0306 151.344 14.0066 151.495 14.0066C152.069 14.0066 152.556 14.0263 152.954 14.0673C153.392 14.0955 153.76 14.1082 154.063 14.1082C154.24 14.1082 154.435 14.1026 154.647 14.087C154.862 14.0758 155.02 14.0616 155.13 14.0475C155.611 13.9798 156.158 13.9445 156.775 13.9445C158.446 13.9445 159.681 14.1816 160.482 14.6546C161.285 15.1247 161.685 15.9096 161.685 17.0066C161.685 17.416 161.599 17.807 161.428 18.1755C161.257 18.5468 161.034 18.8489 160.761 19.0805C160.541 19.2866 160.321 19.4503 160.104 19.5746C159.883 19.696 159.616 19.8061 159.302 19.9021C159.247 19.9303 159.218 19.967 159.218 20.0165C159.218 20.063 159.247 20.0941 159.302 20.1082C160.219 20.3285 160.976 20.6772 161.573 21.1558C162.168 21.6372 162.465 22.4023 162.465 23.4569C162.465 24.1558 162.352 24.7303 162.127 25.1821ZM155.481 19.1214C155.481 19.3826 155.569 19.5703 155.748 19.6861C155.925 19.8047 156.125 19.8612 156.343 19.8612C157.109 19.8612 157.774 19.6706 158.336 19.2866C158.514 19.1355 158.683 18.9054 158.84 18.5976C158.997 18.2899 159.076 17.8819 159.076 17.375C159.076 15.6216 158.275 14.7463 156.672 14.7463C156.232 14.7463 155.925 14.8169 155.748 14.9623C155.569 15.1049 155.481 15.335 155.481 15.6485V19.1214ZM159.189 22.0198C159.429 22.4179 159.549 22.943 159.549 23.6009C159.549 24.1346 159.424 24.6245 159.177 25.0706C158.932 25.5153 158.603 25.864 158.192 26.1181C157.783 26.3708 157.335 26.4979 156.856 26.4979C155.94 26.4979 155.481 26.0447 155.481 25.1426V21.3407C155.481 21.1501 155.579 20.9892 155.779 20.8579C155.976 20.728 156.221 20.663 156.508 20.663C156.933 20.663 157.301 20.711 157.617 20.807C157.932 20.903 158.179 21.0132 158.357 21.1346C158.672 21.3266 158.95 21.623 159.189 22.0198Z" fill="white"/>
<path fill-rule="evenodd" clip-rule="evenodd" d="M178.205 27.5045C178.519 27.5045 178.675 27.4226 178.675 27.2575C178.675 27.04 178.493 26.889 178.122 26.8057C177.657 26.697 177.28 26.5219 176.992 26.2819C176.704 26.0433 176.472 25.6622 176.294 25.1426L175.821 23.7436C175.56 22.9629 175.099 21.5568 174.434 19.5238C173.771 17.4895 173.184 15.6626 172.678 14.0476C172.582 13.7596 172.519 13.5888 172.493 13.5337C172.438 13.4236 172.356 13.4109 172.246 13.4928C172.219 13.5189 172.139 13.6137 171.999 13.7784L171.989 13.7906C171.844 13.9615 171.663 14.1026 171.446 14.2128C171.158 14.3342 170.767 14.4584 170.272 14.5812C170.261 14.6258 170.243 14.6887 170.22 14.7701C170.193 14.8638 170.159 14.9819 170.12 15.1248C170.045 15.3916 169.945 15.712 169.821 16.0805C168.616 19.4095 167.397 22.4899 166.164 25.3276C165.848 26.0673 165.268 26.5459 164.418 26.7648C164.226 26.8339 164.086 26.9031 163.996 26.9709C163.908 27.04 163.863 27.1276 163.863 27.2377C163.863 27.4424 164.055 27.5455 164.438 27.5455C164.822 27.5455 165.207 27.5243 165.59 27.4833C165.712 27.4833 165.902 27.4735 166.154 27.4537C166.407 27.4325 166.629 27.4226 166.822 27.4226C167.123 27.4226 167.507 27.4368 167.973 27.4636L168.958 27.4833C169.109 27.4833 169.229 27.4593 169.317 27.4128C169.407 27.3633 169.452 27.2984 169.452 27.2165C169.452 27.0104 169.266 26.8678 168.897 26.7845C168.46 26.6772 168.139 26.5389 167.942 26.3751C167.744 26.2099 167.644 25.984 167.644 25.696C167.644 25.5746 167.651 25.4786 167.665 25.4095C167.76 24.9563 168.012 24.1205 168.424 22.9022C168.492 22.6551 168.609 22.5337 168.773 22.5337H172.472C172.609 22.5337 172.709 22.5535 172.77 22.5944C172.831 22.6353 172.876 22.7172 172.904 22.8415C173.272 24.1008 173.514 25.0325 173.621 25.6353C173.635 25.6763 173.644 25.7455 173.644 25.8415C173.644 26.0871 173.536 26.2819 173.325 26.4259C173.112 26.5713 172.774 26.6829 172.307 26.7648C171.938 26.8339 171.752 26.9779 171.752 27.1968C171.752 27.2928 171.801 27.3633 171.897 27.4128C171.993 27.4593 172.116 27.4833 172.266 27.4833C172.499 27.4833 172.931 27.4692 173.56 27.4424C174.245 27.417 174.738 27.4029 175.04 27.4029C175.588 27.4029 176.169 27.4226 176.786 27.4636L178.205 27.5045ZM172.431 21.2391C172.458 21.376 172.472 21.4509 172.472 21.4636C172.472 21.5186 172.452 21.5525 172.411 21.568C172.368 21.5822 172.293 21.5878 172.185 21.5878H169.328C169.068 21.5878 168.938 21.5271 168.938 21.4029C168.938 21.3478 168.952 21.2928 168.979 21.2391L170.704 16.473C170.786 16.2923 170.836 16.2048 170.848 16.2048C170.877 16.2048 170.923 16.3008 170.992 16.4928L172.431 21.2391Z" fill="white"/>
<path fill-rule="evenodd" clip-rule="evenodd" d="M186.237 15.7022C186.292 15.3916 186.384 15.1883 186.515 15.0838C186.645 14.9822 186.855 14.9313 187.142 14.9313H188.538C189.141 14.9313 189.59 15.033 189.885 15.2391C190.178 15.4452 190.389 15.7728 190.512 16.2259C190.581 16.5125 190.656 16.7186 190.737 16.8415C190.819 16.9657 190.914 17.0264 191.024 17.0264C191.134 17.0264 191.22 16.9615 191.281 16.8316C191.343 16.7003 191.373 16.5337 191.373 16.3276V15.9789C191.373 15.6485 191.442 15.2335 191.579 14.7252L191.723 14.1506C191.764 13.905 191.785 13.7455 191.785 13.6777C191.785 13.4179 191.716 13.2866 191.579 13.2866C191.483 13.2866 191.397 13.3106 191.322 13.3586C191.247 13.4066 191.155 13.4786 191.045 13.5746C190.881 13.713 190.752 13.809 190.656 13.8612C190.243 14.0546 189.717 14.1506 189.072 14.1506L181.49 14.1718C181.232 14.1718 180.951 14.1365 180.649 14.0673C180.347 13.9996 180.141 13.9106 180.033 13.8005C179.964 13.7186 179.863 13.5845 179.726 13.401C179.587 13.216 179.486 13.1215 179.416 13.1215C179.169 13.1215 179.018 13.2866 178.965 13.6156C178.91 14.0815 178.826 14.4895 178.719 14.8382C178.609 15.1883 178.438 15.6019 178.205 16.0805C178.122 16.2725 178.081 16.4377 178.081 16.5746C178.081 16.7949 178.163 16.9022 178.328 16.9022C178.493 16.9022 178.674 16.7963 178.872 16.5845C179.072 16.3728 179.233 16.1624 179.354 15.9591C179.56 15.657 179.848 15.4099 180.217 15.2193C180.588 15.0273 180.971 14.9313 181.368 14.9313H182.006C182.511 14.9313 182.882 14.9723 183.115 15.0542C183.251 15.0951 183.347 15.2448 183.402 15.5059C183.457 15.7671 183.484 16.2923 183.484 17.0871V25.4095C183.484 25.8471 183.368 26.1648 183.135 26.3652C182.904 26.5629 182.511 26.7182 181.963 26.8283C181.595 26.9088 181.408 27.0513 181.408 27.2575C181.408 27.3408 181.459 27.4057 181.564 27.4537C181.665 27.5017 181.716 27.5243 181.716 27.5243H181.922C182.445 27.5243 182.95 27.5045 183.443 27.4636C184.101 27.4368 184.565 27.4226 184.84 27.4226C185.128 27.4226 185.587 27.4368 186.217 27.4636C186.902 27.4904 187.408 27.5045 187.737 27.5045C187.873 27.5045 187.99 27.4791 188.088 27.4325C188.182 27.3845 188.23 27.321 188.23 27.2377C188.23 27.1276 188.185 27.0415 188.097 26.9808C188.008 26.9186 187.867 26.8678 187.675 26.8283C187.128 26.7026 186.736 26.5389 186.504 26.3342C186.272 26.128 186.156 25.8132 186.156 25.3883V17.1916C186.156 16.5069 186.182 16.0099 186.237 15.7022Z" fill="white"/>
<path fill-rule="evenodd" clip-rule="evenodd" d="M205.877 16.8415C205.962 16.9657 206.056 17.0264 206.167 17.0264C206.275 17.0264 206.36 16.9615 206.424 16.8316C206.486 16.7003 206.515 16.5337 206.515 16.3276V15.9789C206.515 15.6485 206.584 15.2335 206.721 14.7252L206.864 14.1506C206.906 13.905 206.928 13.7455 206.928 13.6777C206.928 13.4179 206.858 13.2866 206.721 13.2866C206.625 13.2866 206.541 13.3106 206.464 13.3586C206.39 13.4066 206.295 13.4786 206.188 13.5746C206.023 13.713 205.891 13.809 205.797 13.8612C205.386 14.0546 204.859 14.1506 204.214 14.1506L196.633 14.1718C196.372 14.1718 196.091 14.1365 195.792 14.0673C195.489 13.9996 195.283 13.9106 195.175 13.8005C195.107 13.7186 195.002 13.5845 194.867 13.401C194.73 13.216 194.625 13.1215 194.559 13.1215C194.312 13.1215 194.161 13.2866 194.106 13.6156C194.051 14.0815 193.969 14.4895 193.859 14.8382C193.749 15.1883 193.578 15.6019 193.346 16.0805C193.264 16.2725 193.224 16.4377 193.224 16.5746C193.224 16.7949 193.305 16.9022 193.471 16.9022C193.633 16.9022 193.815 16.7963 194.014 16.5845C194.212 16.3728 194.373 16.1624 194.497 15.9591C194.702 15.657 194.991 15.4099 195.36 15.2193C195.728 15.0273 196.113 14.9313 196.512 14.9313H197.147C197.654 14.9313 198.024 14.9723 198.255 15.0542C198.392 15.0951 198.489 15.2448 198.544 15.5059C198.598 15.7671 198.626 16.2923 198.626 17.0871V25.4095C198.626 25.8471 198.511 26.1648 198.276 26.3652C198.043 26.5629 197.654 26.7182 197.106 26.8283C196.735 26.9088 196.551 27.0513 196.551 27.2575C196.551 27.3408 196.603 27.4057 196.705 27.4537C196.808 27.5017 196.859 27.5243 196.859 27.5243H197.065C197.584 27.5243 198.093 27.5045 198.585 27.4636C199.242 27.4368 199.709 27.4226 199.982 27.4226C200.27 27.4226 200.727 27.4368 201.36 27.4636C202.044 27.4904 202.55 27.5045 202.88 27.5045C203.017 27.5045 203.133 27.4791 203.229 27.4325C203.325 27.3845 203.373 27.321 203.373 27.2377C203.373 27.1276 203.328 27.0415 203.239 26.9808C203.148 26.9186 203.008 26.8678 202.816 26.8283C202.27 26.7026 201.879 26.5389 201.646 26.3342C201.412 26.128 201.296 25.8132 201.296 25.3883V17.1916C201.296 16.5069 201.324 16.0099 201.379 15.7022C201.433 15.3916 201.526 15.1883 201.657 15.0838C201.787 14.9822 201.995 14.9313 202.283 14.9313H203.68C204.282 14.9313 204.732 15.033 205.026 15.2391C205.321 15.4452 205.53 15.7728 205.654 16.2259C205.72 16.5125 205.797 16.7186 205.877 16.8415Z" fill="white"/>
<path fill-rule="evenodd" clip-rule="evenodd" d="M217.569 26.2508C217.994 26.7845 218.477 27.1896 219.019 27.4635C219.559 27.736 220.26 27.8758 221.124 27.8758C221.754 27.8758 222.273 27.7896 222.686 27.6188C223.098 27.4466 223.301 27.1699 223.301 26.7845C223.301 26.5812 223.2 26.4767 222.993 26.4767C222.378 26.4767 221.87 26.4301 221.473 26.3341C221.075 26.2381 220.687 26.0122 220.303 25.655C219.604 25.0254 218.974 24.3365 218.412 23.591C217.852 22.8456 217.2 21.9096 216.46 20.7873C216.419 20.7463 216.396 20.6969 216.388 20.6419C216.382 20.5868 216.406 20.5543 216.46 20.5402C217.2 20.2522 217.816 19.8456 218.309 19.3176C218.803 18.7896 219.049 18.1092 219.049 17.2734C219.049 16.1623 218.632 15.3308 217.797 14.776C216.961 14.2226 215.748 13.9445 214.159 13.9445C213.515 13.9445 212.968 13.9798 212.515 14.0475C212.419 14.0475 212.27 14.0574 212.064 14.0772C211.857 14.0983 211.66 14.1082 211.468 14.1082C211.181 14.1082 210.816 14.0955 210.378 14.0673C210.009 14.0263 209.536 14.0066 208.962 14.0066C208.633 14.0066 208.468 14.1026 208.468 14.2932C208.468 14.3892 208.513 14.4753 208.6 14.5501C208.691 14.6263 208.825 14.6772 209.001 14.7054C209.373 14.7732 209.642 14.8579 209.813 14.9623C209.984 15.064 210.101 15.2193 210.163 15.4254C210.225 15.6287 210.255 15.9379 210.255 16.3473V25.4292C210.255 25.8682 210.149 26.183 209.937 26.375C209.723 26.567 209.35 26.7181 208.816 26.8282C208.475 26.9087 208.303 27.0513 208.303 27.2574C208.303 27.3407 208.352 27.4056 208.448 27.4536C208.544 27.5016 208.654 27.5242 208.776 27.5242C209.008 27.5242 209.28 27.5186 209.587 27.5045C209.896 27.4903 210.134 27.4776 210.296 27.4635C210.749 27.4226 211.207 27.4028 211.674 27.4028C211.907 27.4028 212.323 27.4169 212.928 27.4423C213.447 27.4833 213.967 27.5045 214.489 27.5045C214.776 27.5045 214.918 27.4169 214.918 27.2376C214.918 27.1275 214.877 27.0414 214.797 26.9807C214.715 26.9186 214.584 26.8678 214.404 26.8282C213.856 26.7322 213.471 26.567 213.245 26.3341C213.019 26.0998 212.905 25.7652 212.905 25.3275V21.5059C212.905 21.2306 212.98 21.095 213.131 21.095H213.152C213.549 21.1205 213.885 21.2108 214.159 21.3619C214.42 21.4974 214.646 21.7303 214.836 22.0607C215.316 22.9628 215.754 23.7068 216.152 24.2899C216.549 24.8715 217.022 25.5252 217.569 26.2508ZM215.782 15.496C216.166 15.9958 216.357 16.7256 216.357 17.6828C216.357 18.5059 216.131 19.1807 215.679 19.7073C215.229 20.2339 214.596 20.4993 213.789 20.4993C213.488 20.4993 213.266 20.4442 213.121 20.3341C212.978 20.224 212.905 20.0263 212.905 19.7398C212.905 18.1092 212.913 17.0814 212.928 16.655C212.939 15.904 213.011 15.3958 213.141 15.1346C213.272 14.8762 213.515 14.7463 213.871 14.7463C214.761 14.7463 215.4 14.9962 215.782 15.496Z" fill="white"/>
<path fill-rule="evenodd" clip-rule="evenodd" d="M230.676 26.8282C230.143 26.7026 229.766 26.5417 229.548 26.344C229.328 26.1449 229.218 25.8414 229.218 25.4292V16.1426C229.218 15.7035 229.314 15.3901 229.507 15.1981C229.698 15.0075 230.068 14.8424 230.616 14.7054C230.793 14.6645 230.923 14.6108 231.007 14.5501C231.088 14.4894 231.129 14.4033 231.129 14.2932C231.129 14.1972 231.088 14.1266 231.007 14.0772C230.923 14.0306 230.813 14.0066 230.676 14.0066C230.349 14.0066 229.855 14.0207 229.197 14.0475C228.622 14.0758 228.199 14.0871 227.923 14.0871C227.651 14.0871 227.212 14.0758 226.609 14.0475C225.979 14.0207 225.492 14.0066 225.149 14.0066C225.028 14.0066 224.918 14.0306 224.822 14.0772C224.726 14.1266 224.679 14.1915 224.679 14.2734C224.679 14.5049 224.848 14.6504 225.192 14.7054C225.727 14.8155 226.089 14.9638 226.28 15.1572C226.472 15.3492 226.568 15.6711 226.568 16.1214V25.4504C226.568 25.8753 226.458 26.1831 226.24 26.3751C226.02 26.5671 225.636 26.7181 225.088 26.8282C224.745 26.9087 224.575 27.0513 224.575 27.2574C224.575 27.3407 224.624 27.4057 224.72 27.4537C224.815 27.5017 224.925 27.5242 225.048 27.5242C225.567 27.5242 226.061 27.5045 226.527 27.4635C227.157 27.4367 227.621 27.4226 227.923 27.4226C228.199 27.4226 228.636 27.4367 229.24 27.4635C229.896 27.4904 230.404 27.5045 230.76 27.5045C231.06 27.5045 231.211 27.4169 231.211 27.2377C231.211 27.1275 231.166 27.0414 231.079 26.9807C230.988 26.9186 230.854 26.8678 230.676 26.8282Z" fill="white"/>
<path fill-rule="evenodd" clip-rule="evenodd" d="M248.326 14.0066C247.914 14.0066 247.49 14.0207 247.053 14.0475L246.066 14.0673L244.339 14.0475C244.188 14.0475 244.048 14.0715 243.92 14.1181C243.789 14.1675 243.724 14.2324 243.724 14.3143C243.724 14.4936 243.951 14.6362 244.401 14.7463C244.826 14.8282 245.165 14.9764 245.418 15.1882C245.672 15.4 245.805 15.6626 245.819 15.9788C245.833 16.8555 245.84 18.2306 245.84 20.1082V23.3341C245.84 23.4442 245.823 23.5303 245.789 23.591C245.754 23.6517 245.709 23.6828 245.654 23.6828C245.573 23.6828 245.442 23.5727 245.265 23.3553C244.567 22.5746 243.156 20.9369 241.032 18.4437C239.059 16.1426 237.869 14.7604 237.457 14.2932C237.336 14.1167 237.19 14.0263 237.025 14.0263C236.189 14.0263 235.423 14.0066 234.724 13.9656C234.094 13.9374 233.621 13.9247 233.308 13.9247C232.965 13.9247 232.794 14.0263 232.794 14.2324C232.794 14.3426 232.856 14.4386 232.977 14.5204C233.102 14.6009 233.239 14.6644 233.39 14.7054C234.019 14.9369 234.496 15.215 234.818 15.5369C235.137 15.8588 235.301 16.3473 235.301 17.0066C235.301 19.6494 235.17 22.3684 234.91 25.1623C234.814 26.0673 234.443 26.6221 233.8 26.8282C233.607 26.8819 233.464 26.9397 233.368 27.0004C233.272 27.064 233.224 27.1501 233.224 27.2574C233.224 27.3407 233.28 27.4056 233.39 27.4536C233.5 27.5016 233.621 27.5242 233.758 27.5242C233.882 27.5242 234.108 27.5129 234.437 27.4833C235.095 27.4423 235.499 27.4226 235.65 27.4226C235.881 27.4226 236.178 27.4367 236.532 27.4635C236.97 27.4903 237.396 27.5044 237.806 27.5044C237.957 27.5044 238.087 27.479 238.197 27.4324C238.307 27.3844 238.362 27.3209 238.362 27.2376C238.362 27.1275 238.31 27.0414 238.207 26.9807C238.105 26.9186 237.951 26.8677 237.745 26.8282C237.211 26.7181 236.822 26.5275 236.575 26.2607C236.328 25.9939 236.203 25.6409 236.203 25.2033L236.184 19.1623V17.8677C236.184 17.7732 236.198 17.6814 236.224 17.591C236.253 17.5021 236.294 17.4583 236.349 17.4583C236.431 17.4583 236.541 17.5402 236.676 17.7054C237.539 18.6484 239.032 20.32 241.156 22.7172C241.65 23.2649 242.185 23.872 242.768 24.5369C243.351 25.2019 243.916 25.8329 244.464 26.4357C244.819 26.8889 245.189 27.2306 245.573 27.4635C245.956 27.695 246.251 27.8122 246.457 27.8122C246.811 27.8122 246.991 27.5524 246.991 27.0315C246.991 26.8946 246.971 26.6828 246.928 26.3962C246.916 26.2706 246.892 26.0122 246.856 25.6155C246.823 25.2174 246.806 24.8602 246.806 24.5468C246.806 23.4767 246.832 21.7939 246.888 19.4927C246.928 18.0273 246.951 16.8343 246.951 15.9181C246.962 15.5468 247.067 15.2757 247.257 15.1049C247.449 14.9341 247.792 14.8014 248.285 14.7054C248.683 14.6221 248.881 14.4795 248.881 14.2734C248.881 14.1915 248.83 14.1266 248.727 14.0772C248.624 14.0306 248.491 14.0066 248.326 14.0066Z" fill="white"/>
<path fill-rule="evenodd" clip-rule="evenodd" d="M263.98 21.2997C263.693 21.2997 263.304 21.3152 262.811 21.3407C262.288 21.3675 261.914 21.3816 261.68 21.3816C261.365 21.3816 260.864 21.3675 260.179 21.3407C259.523 21.3152 259.036 21.2997 258.722 21.2997C258.626 21.2997 258.53 21.3308 258.434 21.3915C258.337 21.4536 258.29 21.5326 258.29 21.6287C258.29 21.7247 258.341 21.8094 258.446 21.8856C258.547 21.9604 258.653 22.0112 258.763 22.0395C259.022 22.0663 259.303 22.1214 259.605 22.2032C259.907 22.2865 260.138 22.3967 260.304 22.5336C260.536 22.6409 260.652 22.8682 260.652 23.2098L260.611 24.7303C260.597 25.0465 260.542 25.3331 260.449 25.5943C260.35 25.8527 260.229 26.039 260.078 26.1491C259.613 26.5458 259.022 26.7435 258.31 26.7435C257.419 26.7435 256.633 26.4908 255.948 25.9839C255.264 25.4785 254.731 24.7585 254.354 23.8282C253.98 22.8964 253.79 21.8051 253.79 20.5599C253.79 19.5336 253.986 18.5778 254.377 17.6955C254.767 16.8103 255.328 16.1058 256.061 15.5778C256.794 15.0512 257.647 14.7872 258.618 14.7872C259.866 14.7872 260.812 15.1232 261.456 15.7938C261.742 16.1101 262.036 16.5816 262.338 17.2127C262.407 17.375 262.475 17.4992 262.544 17.5811C262.61 17.663 262.715 17.7054 262.852 17.7054C262.946 17.7054 263.027 17.663 263.088 17.5811C263.148 17.4992 263.179 17.4032 263.179 17.2931C263.179 16.8287 263.104 16.0409 262.953 14.9312C262.941 14.7519 262.831 14.615 262.624 14.5204C262.242 14.3552 261.594 14.1943 260.683 14.0362C259.771 13.8795 259.05 13.8004 258.516 13.8004C257.051 13.8004 255.728 14.1279 254.551 14.7872C253.372 15.4451 252.456 16.3261 251.798 17.4258C251.141 18.5312 250.812 19.7256 250.812 21.0131C250.812 22.2865 251.133 23.4357 251.776 24.4635C252.42 25.4912 253.291 26.2917 254.387 26.8677C255.481 27.4423 256.68 27.7303 257.983 27.7303C258.873 27.7303 259.665 27.6244 260.364 27.4127C261.064 27.2009 261.722 26.9439 262.338 26.6418C262.624 26.5049 262.811 26.4301 262.891 26.4159C263.138 26.3891 263.263 26.2451 263.263 25.9839C263.263 25.9021 263.233 25.8202 263.169 25.7369C263.109 25.655 263.064 25.5999 263.037 25.5745C263.023 25.5449 262.982 25.4983 262.912 25.4291C262.845 25.3628 262.811 25.2851 262.811 25.2032V24.5679C262.811 24.0047 262.857 23.4908 262.953 23.0263C262.996 22.7369 263.083 22.5237 263.22 22.3783C263.359 22.2343 263.606 22.1157 263.96 22.0197C264.07 21.9915 264.166 21.9463 264.249 21.8856C264.331 21.8235 264.372 21.7388 264.372 21.6287C264.372 21.5185 264.331 21.4367 264.249 21.3816C264.166 21.3265 264.076 21.2997 263.98 21.2997Z" fill="white"/>
<path fill-rule="evenodd" clip-rule="evenodd" d="M277.109 24.3209C276.958 24.3209 276.837 24.4085 276.741 24.5878C276.328 25.3685 275.939 25.9021 275.569 26.1901C275.2 26.4654 274.643 26.6009 273.906 26.6009H272.22C271.808 26.6009 271.512 26.512 271.325 26.3341C271.142 26.1548 271.048 25.847 271.048 25.4094V21.5059C271.048 21.3266 271.094 21.2009 271.183 21.1247C271.27 21.0499 271.42 21.0132 271.624 21.0132H273.535C273.796 21.0132 273.999 21.1049 274.152 21.2899C274.301 21.4734 274.431 21.7656 274.541 22.1623C274.582 22.3416 274.647 22.48 274.737 22.5845C274.825 22.6861 274.918 22.7369 275.014 22.7369C275.151 22.7369 275.22 22.6155 275.22 22.3685V22.2668C275.179 21.8546 275.157 21.2998 275.157 20.6009C275.157 20.0941 275.185 19.5675 275.24 19.0198C275.24 18.8955 275.212 18.7981 275.157 18.7219C275.104 18.647 275.041 18.6075 274.973 18.6075C274.794 18.6075 274.665 18.7445 274.582 19.0198C274.445 19.4292 274.298 19.7256 274.14 19.9021C273.984 20.0814 273.732 20.1689 273.392 20.1689H271.521C271.205 20.1689 271.048 20.0122 271.048 19.696V15.671C271.048 15.4254 271.149 15.2249 271.346 15.0739C271.545 14.9228 271.774 14.848 272.035 14.848H273.947C274.536 14.848 275.02 15.0541 275.404 15.4649C275.514 15.575 275.62 15.7572 275.724 16.0099C275.826 16.2626 275.932 16.5336 276.042 16.8202C276.122 17.0122 276.232 17.1082 276.369 17.1082C276.453 17.1082 276.52 17.0758 276.576 17.0066C276.631 16.9374 276.657 16.8499 276.657 16.7398C276.657 16.4094 276.595 15.8899 276.474 15.1783L276.328 14.2522C276.302 14.0475 276.144 13.9445 275.856 13.9445C275.8 13.9445 275.62 13.96 275.312 13.9854C275.004 14.0122 274.637 14.0348 274.214 14.0475C272.706 14.0758 271.404 14.087 270.309 14.087C269.966 14.087 269.438 14.0758 268.728 14.0475C268.016 14.0207 267.453 14.0066 267.042 14.0066C266.891 14.0066 266.772 14.0306 266.683 14.0772C266.593 14.1266 266.551 14.1972 266.551 14.2932C266.551 14.4993 266.727 14.6362 267.084 14.7054C267.59 14.8155 267.936 14.968 268.122 15.1685C268.305 15.3661 268.399 15.6922 268.399 16.1426V25.4503C268.399 25.888 268.296 26.2 268.091 26.3849C267.885 26.5713 267.529 26.7322 267.021 26.8678C266.666 26.9496 266.487 27.0809 266.487 27.2574C266.487 27.3407 266.536 27.4085 266.632 27.4635C266.727 27.5186 266.844 27.5454 266.98 27.5454C267.46 27.5454 267.926 27.5242 268.379 27.4833C268.98 27.4579 269.412 27.4423 269.672 27.4423C270.672 27.4423 272.049 27.4579 273.801 27.4833L276.268 27.5242C276.46 27.5242 276.595 27.4282 276.677 27.2376C277.104 25.9628 277.315 25.1073 277.315 24.6696C277.315 24.4508 277.246 24.3336 277.109 24.3209Z" fill="white"/>
<path fill-rule="evenodd" clip-rule="evenodd" d="M294.893 14.0772C294.789 14.0306 294.657 14.0066 294.492 14.0066C294.08 14.0066 293.656 14.0207 293.217 14.0475L292.232 14.0673L290.505 14.0475C290.354 14.0475 290.215 14.0715 290.086 14.1181C289.955 14.1675 289.89 14.2324 289.89 14.3143C289.89 14.4936 290.116 14.6362 290.566 14.7463C290.992 14.8282 291.331 14.9764 291.584 15.1882C291.838 15.4 291.971 15.6626 291.985 15.9788C291.999 16.8555 292.006 18.2306 292.006 20.1082V23.3341C292.006 23.4442 291.989 23.5303 291.954 23.591C291.92 23.6517 291.875 23.6828 291.82 23.6828C291.738 23.6828 291.608 23.5727 291.43 23.3553C290.731 22.5746 289.321 20.9369 287.198 18.4437C285.225 16.1426 284.035 14.7604 283.623 14.2932C283.5 14.1167 283.356 14.0263 283.191 14.0263C282.355 14.0263 281.589 14.0066 280.89 13.9656C280.26 13.9374 279.787 13.9247 279.474 13.9247C279.131 13.9247 278.96 14.0263 278.96 14.2324C278.96 14.3426 279.021 14.4386 279.144 14.5204C279.268 14.6009 279.405 14.6644 279.554 14.7054C280.185 14.9369 280.661 15.215 280.983 15.5369C281.304 15.8588 281.467 16.3473 281.467 17.0066C281.467 19.6494 281.336 22.3684 281.075 25.1623C280.98 26.0673 280.609 26.6221 279.967 26.8282C279.773 26.8819 279.631 26.9397 279.535 27.0004C279.439 27.064 279.391 27.1501 279.391 27.2574C279.391 27.3407 279.446 27.4056 279.554 27.4536C279.664 27.5016 279.787 27.5242 279.924 27.5242C280.048 27.5242 280.274 27.5129 280.603 27.4833C281.261 27.4423 281.665 27.4226 281.815 27.4226C282.048 27.4226 282.343 27.4367 282.698 27.4635C283.136 27.4903 283.562 27.5044 283.972 27.5044C284.123 27.5044 284.253 27.479 284.363 27.4324C284.473 27.3844 284.528 27.3209 284.528 27.2376C284.528 27.1275 284.474 27.0414 284.373 26.9807C284.271 26.9186 284.116 26.8677 283.91 26.8282C283.376 26.7181 282.988 26.5275 282.741 26.2607C282.494 25.9939 282.369 25.6409 282.369 25.2033L282.35 19.1623V17.8677C282.35 17.7732 282.364 17.6814 282.391 17.591C282.419 17.5021 282.46 17.4583 282.515 17.4583C282.595 17.4583 282.705 17.5402 282.842 17.7054C283.705 18.6484 285.199 20.32 287.322 22.7172C287.815 23.2649 288.351 23.872 288.934 24.5369C289.517 25.2019 290.082 25.8329 290.63 26.4357C290.984 26.8889 291.355 27.2306 291.738 27.4635C292.122 27.695 292.417 27.8122 292.623 27.8122C292.977 27.8122 293.157 27.5524 293.157 27.0315C293.157 26.8946 293.137 26.6828 293.093 26.3962C293.082 26.2706 293.056 26.0122 293.023 25.6155C292.987 25.2174 292.972 24.8602 292.972 24.5468C292.972 23.4767 292.999 21.7939 293.054 19.4927C293.093 18.0273 293.116 16.8343 293.116 15.9181C293.128 15.5468 293.233 15.2757 293.424 15.1049C293.616 14.9341 293.957 14.8014 294.451 14.7054C294.848 14.6221 295.046 14.4795 295.046 14.2734C295.046 14.1915 294.995 14.1266 294.893 14.0772Z" fill="white"/>
<path fill-rule="evenodd" clip-rule="evenodd" d="M168.331 10.4221C168.098 10.6551 167.98 10.9403 167.98 11.2777C167.98 11.5939 168.098 11.8664 168.331 12.1007C168.564 12.3337 168.838 12.4494 169.154 12.4494C169.49 12.4494 169.777 12.3337 170.01 12.1007C170.243 11.8664 170.36 11.5939 170.36 11.2777C170.36 10.9403 170.243 10.6551 170.01 10.4221C169.777 10.1878 169.49 10.072 169.154 10.072C168.838 10.072 168.564 10.1878 168.331 10.4221Z" fill="white"/>
<path fill-rule="evenodd" clip-rule="evenodd" d="M174.632 12.4494C174.967 12.4494 175.253 12.3337 175.486 12.1007C175.719 11.8664 175.838 11.5939 175.838 11.2777C175.838 10.9403 175.719 10.6551 175.486 10.4221C175.253 10.1878 174.967 10.072 174.632 10.072C174.316 10.072 174.04 10.1878 173.809 10.4221C173.576 10.6551 173.457 10.9403 173.457 11.2777C173.457 11.5939 173.576 11.8664 173.809 12.1007C174.04 12.3337 174.316 12.4494 174.632 12.4494Z" fill="white"/>
<path fill-rule="evenodd" clip-rule="evenodd" d="M122.637 12.3774C122.973 12.3774 123.259 12.2616 123.492 12.0287C123.725 11.7944 123.842 11.5219 123.842 11.2056C123.842 10.8682 123.725 10.5831 123.492 10.3501C123.259 10.1158 122.973 10 122.637 10C122.32 10 122.047 10.1158 121.814 10.3501C121.581 10.5831 121.462 10.8682 121.462 11.2056C121.462 11.5219 121.581 11.7944 121.814 12.0287C122.047 12.2616 122.32 12.3774 122.637 12.3774Z" fill="white"/>
<path fill-rule="evenodd" clip-rule="evenodd" d="M128.114 12.3774C128.449 12.3774 128.736 12.2616 128.968 12.0287C129.201 11.7944 129.32 11.5219 129.32 11.2056C129.32 10.8682 129.201 10.5831 128.968 10.3501C128.736 10.1158 128.449 10 128.114 10C127.798 10 127.523 10.1158 127.291 10.3501C127.058 10.5831 126.94 10.8682 126.94 11.2056C126.94 11.5219 127.058 11.7944 127.291 12.0287C127.523 12.2616 127.798 12.3774 128.114 12.3774Z" fill="white"/>
</svg>
