<?xml version="1.0" encoding="UTF-8"?>
<svg width="140px" height="72px" viewBox="0 0 140 72" version="1.1" xmlns="http://www.w3.org/2000/svg" xmlns:xlink="http://www.w3.org/1999/xlink">
    <title>Group 36</title>
    <defs>
        <polygon id="path-1" points="45.8863291 0 101.266962 0 101.266962 7.9244875 45.8863291 7.9244875"></polygon>
    </defs>
    <g id="Page-1" stroke="none" stroke-width="1" fill="none" fill-rule="evenodd">
        <g id="NPS-–-Bredband-Copy" transform="translate(-80.000000, -30.000000)">
            <g id="Group-36" transform="translate(80.000000, 30.000000)">
                <polygon id="Fill-1" fill="#FFFFFF" points="5.86591139 68.3652787 5.86591139 61.4028412 6.90882278 61.4028412 6.90882278 70.1056662 5.8286962 70.1056662 1.17413924 63.1441162 1.17413924 70.1056662 0.131227848 70.1056662 0.131227848 61.4028412 1.21135443 61.4028412"></polygon>
                <path d="M16.9120886,68.9745475 C17.3046203,68.783735 17.640443,68.52636 17.9177848,68.20331 C18.1942405,67.88026 18.409557,67.50751 18.5628481,67.0841725 C18.7161392,66.66261 18.7923418,66.21886 18.7923418,65.7546975 C18.7923418,65.290535 18.7161392,64.8476725 18.5628481,64.424335 C18.409557,64.0009975 18.1942405,63.629135 17.9177848,63.3051975 C17.640443,62.9821475 17.3046203,62.72566 16.9120886,62.5348475 C16.5186709,62.344035 16.0862658,62.2490725 15.6148734,62.2490725 C15.143481,62.2490725 14.7110759,62.344035 14.3176582,62.5348475 C13.9251266,62.72566 13.5893038,62.9821475 13.3128481,63.3051975 C13.0355063,63.629135 12.8201899,64.0009975 12.6668987,64.424335 C12.5144937,64.8476725 12.4374051,65.290535 12.4374051,65.7546975 C12.4374051,66.21886 12.5144937,66.66261 12.6668987,67.0841725 C12.8201899,67.50751 13.0355063,67.88026 13.3128481,68.20331 C13.5893038,68.52636 13.9251266,68.783735 14.3176582,68.9745475 C14.7110759,69.16536 15.143481,69.2603225 15.6148734,69.2603225 C16.0862658,69.2603225 16.5186709,69.16536 16.9120886,68.9745475 M17.3462658,61.602085 C17.8717089,61.83461 18.3244937,62.1532225 18.7055063,62.55881 C19.086519,62.965285 19.3824684,63.44276 19.5924684,63.98946 C19.8042405,64.53616 19.9096835,65.1245725 19.9096835,65.7546975 C19.9096835,66.383935 19.8042405,66.9723475 19.5924684,67.5190475 C19.3824684,68.0675225 19.086519,68.5432225 18.7055063,68.9496975 C18.3244937,69.3561725 17.8717089,69.674785 17.3462658,69.9064225 C16.8208228,70.1389475 16.2439873,70.2543225 15.6148734,70.2543225 C14.9866456,70.2543225 14.4089241,70.1389475 13.883481,69.9064225 C13.358038,69.674785 12.9052532,69.3561725 12.5242405,68.9496975 C12.1441139,68.5432225 11.8481646,68.0675225 11.6372785,67.5190475 C11.4263924,66.9723475 11.3200633,66.383935 11.3200633,65.7546975 C11.3200633,65.1245725 11.4263924,64.53616 11.6372785,63.98946 C11.8481646,63.44276 12.1441139,62.965285 12.5242405,62.55881 C12.9052532,62.1532225 13.358038,61.83461 13.883481,61.602085 C14.4089241,61.3704475 14.9866456,61.254185 15.6148734,61.254185 C16.2439873,61.254185 16.8208228,61.3704475 17.3462658,61.602085" id="Fill-2" fill="#FFFFFF"></path>
                <path d="M27.9828101,65.1263475 C28.2893924,64.8405725 28.4426835,64.4571725 28.4426835,63.977035 C28.4426835,63.49601 28.2893924,63.11261 27.9828101,62.826835 C27.6771139,62.54106 27.2296456,62.3981725 26.6421772,62.3981725 L25.3635696,62.3981725 L25.3635696,65.55501 L26.6421772,65.55501 C27.2296456,65.55501 27.6771139,65.4121225 27.9828101,65.1263475 L27.9828101,65.1263475 Z M26.5801519,61.403285 C27.0107848,61.403285 27.4033165,61.463635 27.759519,61.5834475 C28.1148354,61.7041475 28.4214177,61.8780975 28.6783797,62.106185 C28.9344557,62.3342725 29.1329367,62.606735 29.2738228,62.926235 C29.4147089,63.245735 29.4847089,63.6033975 29.4847089,64.0009975 C29.4847089,64.50776 29.3854684,64.91956 29.1869873,65.2381725 C28.9885063,65.5576725 28.762557,65.8061725 28.5100253,65.98456 C28.2583797,66.1629475 28.0182532,66.2854225 27.7905316,66.3510975 C27.5628101,66.41766 27.4201519,66.454935 27.362557,66.4629225 L29.7700253,70.1052225 L28.5171139,70.1052225 L26.1707848,66.5498975 L25.3635696,66.5498975 L25.3635696,70.1052225 L24.3215443,70.1052225 L24.3215443,61.403285 L26.5801519,61.403285 Z" id="Fill-4" fill="#FFFFFF"></path>
                <polygon id="Fill-6" fill="#FFFFFF" points="33.2650633 62.397995 33.2650633 61.4031075 39.2974684 61.4031075 39.2974684 62.397995 36.8022785 62.397995 36.8022785 70.1059325 35.7593671 70.1059325 35.7593671 62.397995"></polygon>
                <polygon id="Fill-8" fill="#FFFFFF" points="49.8543544 61.4030188 49.8543544 70.1058438 48.811443 70.1058438 48.811443 66.1396063 44.4554937 66.1396063 44.4554937 70.1058438 43.4125823 70.1058438 43.4125823 61.4030188 44.4554937 61.4030188 44.4554937 65.1456063 48.811443 65.1456063 48.811443 61.4030188"></polygon>
                <path d="M64.8379873,65.2572537 C65.2021646,64.9918912 65.3838101,64.5818662 65.3838101,64.0262912 C65.3838101,63.4707162 65.2021646,63.0606912 64.8379873,62.7962162 C64.4738101,62.5308537 63.993557,62.3977287 63.3981139,62.3977287 L62.255962,62.3977287 L62.255962,65.6548537 L63.3981139,65.6548537 C63.993557,65.6548537 64.4738101,65.5226162 64.8379873,65.2572537 L64.8379873,65.2572537 Z M63.4601392,61.4028412 C64.3710253,61.4028412 65.0922911,61.6309287 65.6265949,62.0871037 C66.1600127,62.5423912 66.4267215,63.1893787 66.4267215,64.0262912 C66.4267215,64.8640912 66.1600127,65.5101912 65.6265949,65.9663662 C65.0922911,66.4216537 64.3710253,66.6488537 63.4601392,66.6488537 L62.255962,66.6488537 L62.255962,70.1056662 L61.2139367,70.1056662 L61.2139367,61.4028412 L63.4601392,61.4028412 Z" id="Fill-10" fill="#FFFFFF"></path>
                <path d="M74.3524937,65.1263475 C74.6590759,64.8405725 74.8123671,64.4571725 74.8123671,63.977035 C74.8123671,63.49601 74.6590759,63.11261 74.3524937,62.826835 C74.0459114,62.54106 73.5993291,62.3981725 73.0118608,62.3981725 L71.7341392,62.3981725 L71.7341392,65.55501 L73.0118608,65.55501 C73.5993291,65.55501 74.0459114,65.4121225 74.3524937,65.1263475 L74.3524937,65.1263475 Z M72.9498354,61.403285 C73.3795823,61.403285 73.7738861,61.463635 74.1292025,61.5834475 C74.484519,61.7041475 74.7911013,61.8780975 75.0471772,62.106185 C75.3041392,62.3342725 75.5026203,62.606735 75.6435063,62.926235 C75.7835063,63.245735 75.8543924,63.6033975 75.8543924,64.0009975 C75.8543924,64.50776 75.7551519,64.91956 75.5557848,65.2381725 C75.3581899,65.5576725 75.1322405,65.8061725 74.8805949,65.98456 C74.6280633,66.1629475 74.3879367,66.2854225 74.1602152,66.3510975 C73.9324937,66.41766 73.7898354,66.454935 73.7322405,66.4629225 L76.1405949,70.1052225 L74.8867975,70.1052225 L72.5404684,66.5498975 L71.7341392,66.5498975 L71.7341392,70.1052225 L70.6912278,70.1052225 L70.6912278,61.403285 L72.9498354,61.403285 Z" id="Fill-12" fill="#FFFFFF"></path>
                <path d="M85.5244937,68.9745475 C85.9170253,68.783735 86.251962,68.52636 86.5301899,68.20331 C86.8066456,67.88026 87.021962,67.50751 87.1752532,67.0841725 C87.3285443,66.66261 87.4047468,66.21886 87.4047468,65.7546975 C87.4047468,65.290535 87.3285443,64.8476725 87.1752532,64.424335 C87.021962,64.0009975 86.8066456,63.629135 86.5301899,63.3051975 C86.251962,62.9821475 85.9170253,62.72566 85.5244937,62.5348475 C85.131962,62.344035 84.6986709,62.2490725 84.2272785,62.2490725 C83.7558861,62.2490725 83.323481,62.344035 82.9300633,62.5348475 C82.5375316,62.72566 82.2025949,62.9821475 81.9252532,63.3051975 C81.6479114,63.629135 81.4325949,64.0009975 81.2793038,64.424335 C81.1260127,64.8476725 81.0498101,65.290535 81.0498101,65.7546975 C81.0498101,66.21886 81.1260127,66.66261 81.2793038,67.0841725 C81.4325949,67.50751 81.6479114,67.88026 81.9252532,68.20331 C82.2025949,68.52636 82.5375316,68.783735 82.9300633,68.9745475 C83.323481,69.16536 83.7558861,69.2603225 84.2272785,69.2603225 C84.6986709,69.2603225 85.131962,69.16536 85.5244937,68.9745475 M85.9586709,61.602085 C86.4841139,61.83461 86.9377848,62.1532225 87.3179114,62.55881 C87.698038,62.965285 87.9939873,63.44276 88.2048734,63.98946 C88.4166456,64.53616 88.5220886,65.1245725 88.5220886,65.7546975 C88.5220886,66.383935 88.4166456,66.9723475 88.2048734,67.5190475 C87.9939873,68.0675225 87.698038,68.5432225 87.3179114,68.9496975 C86.9377848,69.3561725 86.4841139,69.674785 85.9586709,69.9064225 C85.4332278,70.1389475 84.8563924,70.2543225 84.2272785,70.2543225 C83.5981646,70.2543225 83.0213291,70.1389475 82.4958861,69.9064225 C81.970443,69.674785 81.5176582,69.3561725 81.1366456,68.9496975 C80.756519,68.5432225 80.4605696,68.0675225 80.2496835,67.5190475 C80.0387975,66.9723475 79.9324684,66.383935 79.9324684,65.7546975 C79.9324684,65.1245725 80.0387975,64.53616 80.2496835,63.98946 C80.4605696,63.44276 80.756519,62.965285 81.1366456,62.55881 C81.5176582,62.1532225 81.970443,61.83461 82.4958861,61.602085 C83.0213291,61.3704475 83.5981646,61.254185 84.2272785,61.254185 C84.8563924,61.254185 85.4332278,61.3704475 85.9586709,61.602085" id="Fill-14" fill="#FFFFFF"></path>
                <path d="M96.7812911,61.4030188 L96.7812911,67.7814813 C96.7812911,68.1453563 96.721038,68.4790563 96.6014177,68.7808063 C96.4809114,69.0834438 96.3116709,69.3452563 96.0928101,69.5644688 C95.8730633,69.7836813 95.612557,69.9540813 95.3104051,70.0747813 C95.0082532,70.1945938 94.6706582,70.2549438 94.2985063,70.2549438 C94.0087595,70.2549438 93.7438228,70.2176688 93.5045823,70.1431188 C93.2644557,70.0685688 93.0491392,69.9727188 92.8586329,69.8564563 C92.6681266,69.7410813 92.4988861,69.6061813 92.3500253,69.4526438 C92.2011646,69.2991063 92.0735696,69.1491188 91.9645823,68.9991313 L92.7221772,68.3397188 C92.7886329,68.4479938 92.8692658,68.5562688 92.9640759,68.6636563 C93.0597722,68.7710438 93.1714177,68.8686688 93.2990127,68.9556438 C93.4283797,69.0426188 93.5728101,69.1145063 93.7340759,69.1730813 C93.8953418,69.2307688 94.0831899,69.2609438 94.2985063,69.2609438 C94.563443,69.2609438 94.7867342,69.2147938 94.9692658,69.1233813 C95.1509114,69.0328563 95.2997722,68.9165938 95.4158481,68.7754813 C95.5319241,68.6343688 95.6143291,68.4772813 95.6639494,68.3024438 C95.7135696,68.1284938 95.7383797,67.9589813 95.7383797,67.7930188 L95.7383797,61.4030188 L96.7812911,61.4030188 Z" id="Fill-16" fill="#FFFFFF"></path>
                <polygon id="Fill-18" fill="#FFFFFF" points="106.457241 65.1454287 106.457241 66.1394287 102.78357 66.1394287 102.78357 69.1107787 106.829392 69.1107787 106.829392 70.1056662 101.740658 70.1056662 101.740658 61.4028412 106.754962 61.4028412 106.754962 62.3977287 102.78357 62.3977287 102.78357 65.1454287"></polygon>
                <path d="M116.56143,62.54106 C116.143203,62.34581 115.685987,62.2490725 115.189785,62.2490725 C114.709532,62.2490725 114.273582,62.344035 113.880165,62.5348475 C113.486747,62.72566 113.150038,62.9821475 112.868266,63.3051975 C112.58738,63.629135 112.370291,64.001885 112.217,64.424335 C112.063709,64.8476725 111.987506,65.290535 111.987506,65.7546975 C111.987506,66.21886 112.063709,66.66261 112.217,67.0841725 C112.370291,67.50751 112.58738,67.88026 112.868266,68.20331 C113.150038,68.52636 113.484975,68.783735 113.873962,68.9745475 C114.262949,69.16536 114.693582,69.2603225 115.164975,69.2603225 C115.454722,69.2603225 115.727633,69.2248225 115.984595,69.15471 C116.240671,69.08371 116.473709,68.993185 116.685481,68.88136 C116.896367,68.769535 117.085101,68.645285 117.249911,68.50861 C117.415608,68.3710475 117.556494,68.237035 117.671684,68.1047975 L118.379658,68.8254475 C118.230797,68.99141 118.049152,69.15826 117.833835,69.32866 C117.617633,69.49906 117.373962,69.65171 117.101051,69.788385 C116.828139,69.92506 116.527759,70.036885 116.201684,70.1247475 C115.874722,70.2117225 115.520291,70.2543225 115.140165,70.2543225 C114.519025,70.2543225 113.948392,70.1389475 113.42738,69.9064225 C112.905481,69.674785 112.457127,69.3561725 112.080544,68.9496975 C111.703962,68.5432225 111.408899,68.0675225 111.192696,67.5190475 C110.97738,66.9723475 110.870165,66.383935 110.870165,65.7546975 C110.870165,65.1245725 110.975608,64.53616 111.18738,63.98946 C111.398266,63.44276 111.694215,62.9661725 112.074342,62.5596975 C112.454468,62.1532225 112.908139,61.83461 113.433582,61.602085 C113.958139,61.3704475 114.535861,61.254185 115.164975,61.254185 C115.545987,61.254185 115.896873,61.2958975 116.219405,61.378435 C116.542823,61.4609725 116.834342,61.566585 117.094848,61.6952725 C117.355354,61.82396 117.584848,61.967735 117.784215,62.123935 C117.982696,62.28191 118.147506,62.4354475 118.279532,62.5845475 L117.560038,63.2679225 C117.311937,62.97771 116.979658,62.73631 116.56143,62.54106" id="Fill-20" fill="#FFFFFF"></path>
                <polygon id="Fill-22" fill="#FFFFFF" points="121.724684 62.397995 121.724684 61.4031075 127.757089 61.4031075 127.757089 62.397995 125.261899 62.397995 125.261899 70.1059325 124.218987 70.1059325 124.218987 62.397995"></polygon>
                <path d="M135.738418,67.3017875 C135.651582,67.1402625 135.53462,66.9956 135.384873,66.8669125 C135.236013,66.738225 135.057911,66.6219625 134.851456,66.5190125 C134.645,66.415175 134.420823,66.3060125 134.180696,66.18975 C133.89981,66.0575125 133.61538,65.9155125 133.330949,65.7673 C133.045633,65.6182 132.788671,65.4433625 132.560949,65.24545 C132.333228,65.0457625 132.14981,64.8159 132.008924,64.554975 C131.868038,64.2931625 131.798038,63.9896375 131.798038,63.64085 C131.798038,63.351525 131.851203,63.0630875 131.959304,62.776425 C132.066519,62.49065 132.224241,62.2359375 132.431582,62.0122875 C132.638038,61.7886375 132.896772,61.6067 133.206899,61.4655875 C133.517025,61.3253625 133.878544,61.2543625 134.292342,61.2543625 C134.598924,61.2543625 134.882468,61.2934125 135.142975,61.3724 C135.403481,61.4505 135.637405,61.5525625 135.843861,61.6768125 C136.051203,61.8010625 136.233734,61.9377375 136.389684,62.0868375 C136.547405,62.2359375 136.675886,62.3814875 136.775127,62.5217125 L135.992722,63.156275 C135.918291,63.048 135.826139,62.9406125 135.714494,62.833225 C135.601962,62.7258375 135.473481,62.627325 135.329051,62.5412375 C135.18462,62.453375 135.024241,62.3832625 134.851456,62.329125 C134.677785,62.275875 134.491709,62.24925 134.292342,62.24925 C134.053101,62.24925 133.843101,62.286525 133.665886,62.361075 C133.487785,62.435625 133.337152,62.535025 133.212215,62.659275 C133.089051,62.783525 132.995127,62.925525 132.933987,63.0879375 C132.871962,63.2494625 132.840063,63.4127625 132.840063,63.5796125 C132.840063,63.7864 132.886139,63.9665625 132.977405,64.1192125 C133.067785,64.27275 133.196266,64.4156375 133.361076,64.547875 C133.527658,64.681 133.729684,64.8096875 133.96981,64.9339375 C134.209937,65.0581875 134.478418,65.186875 134.777025,65.32 C135.107532,65.4691 135.407911,65.623525 135.677278,65.7859375 C135.944873,65.9474625 136.172595,66.1231875 136.358671,66.314 C136.545633,66.5048125 136.688291,66.720475 136.787532,66.9601 C136.886772,67.2006125 136.936392,67.48195 136.936392,67.805 C136.936392,68.186625 136.868165,68.5292 136.731709,68.8318375 C136.595253,69.1335875 136.406519,69.3909625 136.166392,69.6021875 C135.927152,69.8134125 135.643608,69.9749375 135.316646,70.0867625 C134.989684,70.199475 134.64057,70.2545 134.268418,70.2545 C133.89538,70.2545 133.560443,70.203025 133.262722,70.0991875 C132.964114,69.99535 132.699177,69.8595625 132.468797,69.688275 C132.236646,69.5187625 132.037278,69.3244 131.872468,69.1043 C131.706772,68.8850875 131.574747,68.6632125 131.47462,68.4395625 L132.343861,67.9177125 C132.418291,68.0916625 132.515759,68.2594 132.63538,68.420925 C132.755886,68.58245 132.894114,68.7253375 133.051835,68.8495875 C133.209557,68.974725 133.38943,69.0732375 133.591456,69.148675 C133.794367,69.223225 134.015886,69.2605 134.255127,69.2605 C134.462468,69.2605 134.662722,69.2312125 134.857658,69.1726375 C135.052595,69.11495 135.223608,69.027975 135.372468,68.9117125 C135.521329,68.7963375 135.641835,68.6525625 135.732215,68.48305 C135.823481,68.3135375 135.868671,68.112075 135.868671,67.87955 C135.868671,67.6559 135.826139,67.4642 135.738418,67.3017875" id="Fill-24" fill="#FFFFFF"></path>
                <polygon id="Clip-28" fill="#FFFFFF" points="28.8364557 0 28.8364557 30.55485 6.80063291 0 0 0 0 44.375 7.55556962 44.375 7.55556962 13.8831625 29.5922785 44.375 36.3920253 44.375 36.3920253 0"></polygon>
                <path d="M109.176962,0 L109.176962,44.375 L116.89557,44.375 L116.89557,28.4 L124.48481,28.4 C126.715063,28.4 128.751266,28.0405625 130.596076,27.3216875 L130.596076,27.3216875 C132.44,26.6037 134.015443,25.6105875 135.322405,24.34235 L135.322405,24.34235 C136.631139,23.075 137.638608,21.575125 138.346582,19.8418375 L138.346582,19.8418375 C139.053671,18.1094375 139.408101,16.2279375 139.408101,14.2 L139.408101,14.2 C139.408101,12.171175 139.053671,10.29145 138.346582,8.5581625 L138.346582,8.5581625 C137.638608,6.824875 136.631139,5.325 135.322405,4.0567625 L135.322405,4.0567625 C134.015443,2.7894125 132.44,1.7963 130.596076,1.077425 L130.596076,1.077425 C128.751266,0.3594375 126.715063,0 124.48481,0 L124.48481,0 L109.176962,0 Z M116.89557,7.226025 L123.520759,7.226025 C126.178987,7.226025 128.184177,7.8605875 129.534557,9.128825 L129.534557,9.128825 C130.885823,10.396175 131.560127,12.0868625 131.560127,14.2 L131.560127,14.2 C131.560127,16.3131375 130.885823,18.003825 129.534557,19.271175 L129.534557,19.271175 C128.184177,20.5394125 126.178987,21.1730875 123.520759,21.1730875 L123.520759,21.1730875 L116.89557,21.1730875 L116.89557,7.226025 Z" id="Clip-31" fill="#FFFFFF"></path>
                <mask id="mask-2" fill="white">
                    <use xlink:href="#path-1"></use>
                </mask>
                <use id="Clip-34" fill="#FFFFFF" xlink:href="#path-1"></use>
            </g>
        </g>
    </g>
</svg>